<svg width="36" height="36" viewBox="0 0 36 36" fill="none" xmlns="http://www.w3.org/2000/svg">
<circle cx="18" cy="18" r="17.5" fill="black" stroke="#FFC94A"/>
<path d="M24.2378 12.1167C23.0905 11.5903 21.8602 11.2025 20.5739 10.9803C20.5505 10.976 20.5271 10.9868 20.515 11.0082C20.3568 11.2896 20.1815 11.6567 20.0588 11.9453C18.6753 11.7382 17.2989 11.7382 15.9437 11.9453C15.821 11.6503 15.6394 11.2896 15.4804 11.0082C15.4684 10.9875 15.445 10.9768 15.4215 10.9803C14.1359 11.2018 12.9057 11.5896 11.7577 12.1167C11.7478 12.121 11.7392 12.1281 11.7336 12.1374C9.40004 15.6237 8.76079 19.0243 9.07439 22.3827C9.0758 22.3991 9.08503 22.4148 9.0978 22.4248C10.6374 23.5555 12.1288 24.2419 13.5925 24.6969C13.6159 24.704 13.6407 24.6954 13.6556 24.6761C14.0018 24.2033 14.3105 23.7048 14.5751 23.1805C14.5907 23.1498 14.5758 23.1134 14.5439 23.1012C14.0543 22.9155 13.5882 22.6891 13.1398 22.432C13.1043 22.4113 13.1015 22.3605 13.1341 22.3362C13.2285 22.2655 13.3229 22.192 13.413 22.1177C13.4293 22.1041 13.452 22.1013 13.4711 22.1098C16.417 23.4548 19.6062 23.4548 22.5172 22.1098C22.5364 22.1006 22.5591 22.1034 22.5761 22.117C22.6662 22.1913 22.7606 22.2655 22.8557 22.3362C22.8883 22.3605 22.8862 22.4113 22.8507 22.432C22.4023 22.6941 21.9361 22.9155 21.4459 23.1005C21.414 23.1127 21.3998 23.1498 21.4154 23.1805C21.6857 23.704 21.9943 24.2026 22.3342 24.6754C22.3484 24.6954 22.3739 24.704 22.3973 24.6969C23.8681 24.2419 25.3595 23.5555 26.8991 22.4248C26.9126 22.4148 26.9211 22.3998 26.9225 22.3834C27.2978 18.5007 26.2939 15.128 24.2612 12.1381C24.2562 12.1281 24.2477 12.121 24.2378 12.1167ZM15.015 20.3378C14.1281 20.3378 13.3973 19.5235 13.3973 18.5236C13.3973 17.5236 14.114 16.7094 15.015 16.7094C15.9232 16.7094 16.6469 17.5308 16.6327 18.5236C16.6327 19.5235 15.9161 20.3378 15.015 20.3378ZM20.9961 20.3378C20.1092 20.3378 19.3784 19.5235 19.3784 18.5236C19.3784 17.5236 20.095 16.7094 20.9961 16.7094C21.9042 16.7094 22.6279 17.5308 22.6137 18.5236C22.6137 19.5235 21.9042 20.3378 20.9961 20.3378Z" fill="#FFC94A"/>
</svg>
