<svg width="36" height="36" viewBox="0 0 36 36" fill="none" xmlns="http://www.w3.org/2000/svg">
<circle cx="18" cy="18" r="17.5" fill="black" stroke="#FFC94A"/>
<g clip-path="url(#clip0_96_372)">
<path fill-rule="evenodd" clip-rule="evenodd" d="M18.0074 9C13.0266 9 9 13.0562 9 18.0744C9 22.0856 11.58 25.4811 15.159 26.6828C15.6065 26.7732 15.7704 26.4876 15.7704 26.2473C15.7704 26.037 15.7557 25.3159 15.7557 24.5646C13.25 25.1055 12.7282 23.4828 12.7282 23.4828C12.3256 22.4312 11.7289 22.1609 11.7289 22.1609C10.9088 21.605 11.7887 21.605 11.7887 21.605C12.6984 21.6651 13.1757 22.5364 13.1757 22.5364C13.9809 23.9185 15.2783 23.528 15.8003 23.2876C15.8748 22.7016 16.1135 22.296 16.3671 22.0707C14.3686 21.8603 12.266 21.0791 12.266 17.5935C12.266 16.602 12.6237 15.7907 13.1905 15.1598C13.101 14.9345 12.7878 14.0028 13.2801 12.7559C13.2801 12.7559 14.0406 12.5155 15.7555 13.6874C16.4897 13.4887 17.2469 13.3877 18.0074 13.3868C18.768 13.3868 19.5433 13.4921 20.2592 13.6874C21.9743 12.5155 22.7348 12.7559 22.7348 12.7559C23.2271 14.0028 22.9137 14.9345 22.8242 15.1598C23.4059 15.7907 23.7489 16.602 23.7489 17.5935C23.7489 21.0791 21.6463 21.8452 19.6329 22.0707C19.9611 22.3561 20.2443 22.8969 20.2443 23.7533C20.2443 24.9702 20.2295 25.9468 20.2295 26.2472C20.2295 26.4876 20.3936 26.7732 20.8409 26.683C24.42 25.4809 27 22.0856 27 18.0744C27.0147 13.0562 22.9734 9 18.0074 9Z" fill="#FFC94A"/>
</g>
<defs>
<clipPath id="clip0_96_372">
<rect width="18" height="18" fill="white" transform="translate(9 9)"/>
</clipPath>
</defs>
</svg>
