<svg width="36" height="36" viewBox="0 0 36 36" fill="none" xmlns="http://www.w3.org/2000/svg">
<circle cx="18" cy="18" r="17.5" fill="black" stroke="#FFC94A"/>
<g clip-path="url(#clip0_96_362)">
<path d="M18 10.6207C20.4047 10.6207 20.6895 10.6312 21.6352 10.6734C22.5141 10.7121 22.9887 10.8598 23.3051 10.9828C23.7234 11.1445 24.0258 11.3414 24.3387 11.6543C24.6551 11.9707 24.8484 12.2695 25.0102 12.6879C25.1332 13.0043 25.2809 13.4824 25.3195 14.3578C25.3617 15.307 25.3723 15.5918 25.3723 17.993C25.3723 20.3977 25.3617 20.6824 25.3195 21.6281C25.2809 22.507 25.1332 22.9816 25.0102 23.298C24.8484 23.7164 24.6516 24.0187 24.3387 24.3316C24.0223 24.648 23.7234 24.8414 23.3051 25.0031C22.9887 25.1262 22.5105 25.2738 21.6352 25.3125C20.6859 25.3547 20.4012 25.3652 18 25.3652C15.5953 25.3652 15.3105 25.3547 14.3648 25.3125C13.4859 25.2738 13.0113 25.1262 12.6949 25.0031C12.2766 24.8414 11.9742 24.6445 11.6613 24.3316C11.3449 24.0152 11.1516 23.7164 10.9898 23.298C10.8668 22.9816 10.7191 22.5035 10.6805 21.6281C10.6383 20.6789 10.6277 20.3941 10.6277 17.993C10.6277 15.5883 10.6383 15.3035 10.6805 14.3578C10.7191 13.4789 10.8668 13.0043 10.9898 12.6879C11.1516 12.2695 11.3484 11.9672 11.6613 11.6543C11.9777 11.3379 12.2766 11.1445 12.6949 10.9828C13.0113 10.8598 13.4895 10.7121 14.3648 10.6734C15.3105 10.6312 15.5953 10.6207 18 10.6207ZM18 9C15.5566 9 15.2508 9.01055 14.291 9.05273C13.3348 9.09492 12.6773 9.24961 12.1078 9.47109C11.5137 9.70312 11.0109 10.009 10.5117 10.5117C10.009 11.0109 9.70313 11.5137 9.47109 12.1043C9.24961 12.6773 9.09492 13.3312 9.05273 14.2875C9.01055 15.2508 9 15.5566 9 18C9 20.4434 9.01055 20.7492 9.05273 21.709C9.09492 22.6652 9.24961 23.3227 9.47109 23.8922C9.70313 24.4863 10.009 24.9891 10.5117 25.4883C11.0109 25.9875 11.5137 26.2969 12.1043 26.5254C12.6773 26.7469 13.3313 26.9016 14.2875 26.9437C15.2473 26.9859 15.5531 26.9965 17.9965 26.9965C20.4398 26.9965 20.7457 26.9859 21.7055 26.9437C22.6617 26.9016 23.3191 26.7469 23.8887 26.5254C24.4793 26.2969 24.982 25.9875 25.4813 25.4883C25.9805 24.9891 26.2898 24.4863 26.5184 23.8957C26.7398 23.3227 26.8945 22.6687 26.9367 21.7125C26.9789 20.7527 26.9895 20.4469 26.9895 18.0035C26.9895 15.5602 26.9789 15.2543 26.9367 14.2945C26.8945 13.3383 26.7398 12.6809 26.5184 12.1113C26.2969 11.5137 25.991 11.0109 25.4883 10.5117C24.9891 10.0125 24.4863 9.70312 23.8957 9.47461C23.3227 9.25312 22.6688 9.09844 21.7125 9.05625C20.7492 9.01055 20.4434 9 18 9Z" fill="#FFC94A"/>
<path d="M18 13.377C15.4477 13.377 13.377 15.4477 13.377 18C13.377 20.5523 15.4477 22.623 18 22.623C20.5523 22.623 22.623 20.5523 22.623 18C22.623 15.4477 20.5523 13.377 18 13.377ZM18 20.9988C16.3441 20.9988 15.0012 19.6559 15.0012 18C15.0012 16.3441 16.3441 15.0012 18 15.0012C19.6559 15.0012 20.9988 16.3441 20.9988 18C20.9988 19.6559 19.6559 20.9988 18 20.9988Z" fill="#FFC94A"/>
<path d="M23.8852 13.1941C23.8852 13.7918 23.4 14.2734 22.8059 14.2734C22.2082 14.2734 21.7266 13.7882 21.7266 13.1941C21.7266 12.5964 22.2117 12.1148 22.8059 12.1148C23.4 12.1148 23.8852 12.6 23.8852 13.1941Z" fill="#FFC94A"/>
</g>
<defs>
<clipPath id="clip0_96_362">
<rect width="18" height="18" fill="white" transform="translate(9 9)"/>
</clipPath>
</defs>
</svg>
