<svg width="36" height="36" viewBox="0 0 36 36" fill="none" xmlns="http://www.w3.org/2000/svg">
<circle cx="18" cy="18" r="17.5" fill="black" stroke="#FFC94A"/>
<g clip-path="url(#clip0_96_376)">
<path d="M25.6676 9H10.3289C9.59414 9 9 9.58008 9 10.2973V25.6992C9 26.4164 9.59414 27 10.3289 27H25.6676C26.4023 27 27 26.4164 27 25.7027V10.2973C27 9.58008 26.4023 9 25.6676 9ZM14.3402 24.3387H11.6684V15.7465H14.3402V24.3387ZM13.0043 14.5758C12.1465 14.5758 11.4539 13.8832 11.4539 13.0289C11.4539 12.1746 12.1465 11.482 13.0043 11.482C13.8586 11.482 14.5512 12.1746 14.5512 13.0289C14.5512 13.8797 13.8586 14.5758 13.0043 14.5758ZM24.3387 24.3387H21.6703V20.1621C21.6703 19.1672 21.6527 17.884 20.2816 17.884C18.893 17.884 18.682 18.9703 18.682 20.0918V24.3387H16.0172V15.7465H18.5766V16.9207H18.6117C18.9668 16.2457 19.8387 15.532 21.1359 15.532C23.8395 15.532 24.3387 17.3109 24.3387 19.6242V24.3387Z" fill="#FFC94A"/>
</g>
<defs>
<clipPath id="clip0_96_376">
<rect width="18" height="18" fill="white" transform="translate(9 9)"/>
</clipPath>
</defs>
</svg>
