<svg width="36" height="36" viewBox="0 0 36 36" fill="none" xmlns="http://www.w3.org/2000/svg">
<circle cx="18" cy="18" r="17.5" fill="black" stroke="#FFC94A"/>
<path d="M21.8044 9H18.7709V21.2608C18.7709 22.7218 17.6041 23.9218 16.1522 23.9218C14.7003 23.9218 13.5335 22.7218 13.5335 21.2608C13.5335 19.8261 14.6743 18.6522 16.0744 18.6V15.5217C12.989 15.5739 10.5 18.1044 10.5 21.2608C10.5 24.4435 13.0409 27 16.1781 27C19.3153 27 21.8562 24.4174 21.8562 21.2608V14.9739C22.997 15.8087 24.3971 16.3043 25.875 16.3305V13.2522C23.5934 13.1739 21.8044 11.2957 21.8044 9Z" fill="#FFC94A"/>
</svg>
