<svg width="36" height="36" viewBox="0 0 36 36" fill="none" xmlns="http://www.w3.org/2000/svg">
<circle cx="18" cy="18" r="17.5" fill="black" stroke="#FFC94A"/>
<path d="M9 27L10.2652 22.3778C9.4845 21.0247 9.07425 19.491 9.075 17.9183C9.07725 13.0012 13.0785 9 17.9947 9C20.3805 9.00075 22.62 9.93 24.3045 11.616C25.9882 13.302 26.9152 15.543 26.9145 17.9265C26.9122 22.8443 22.911 26.8455 17.9947 26.8455C16.5022 26.8448 15.0315 26.4705 13.7287 25.7595L9 27ZM13.9477 24.1448C15.2047 24.891 16.4047 25.338 17.9917 25.3387C22.0777 25.3387 25.4062 22.0133 25.4085 17.925C25.41 13.8285 22.0972 10.5075 17.9977 10.506C13.9087 10.506 10.5825 13.8315 10.581 17.919C10.5802 19.5878 11.0692 20.8372 11.8905 22.1445L11.1412 24.8805L13.9477 24.1448ZM22.488 20.0468C22.4325 19.9537 22.284 19.8982 22.0605 19.7865C21.8377 19.6748 20.742 19.1355 20.5372 19.0612C20.3332 18.987 20.1847 18.9495 20.0355 19.173C19.887 19.3958 19.4595 19.8982 19.3297 20.0468C19.2 20.1953 19.0695 20.214 18.8467 20.1023C18.624 19.9905 17.9055 19.7557 17.0542 18.996C16.392 18.405 15.9442 17.6753 15.8145 17.4517C15.6847 17.229 15.801 17.1082 15.912 16.9973C16.0125 16.8975 16.1347 16.737 16.2465 16.6065C16.3597 16.4775 16.3965 16.3845 16.4715 16.2353C16.5457 16.0868 16.509 15.9563 16.4527 15.8445C16.3965 15.7335 15.951 14.6363 15.7657 14.19C15.5842 13.7558 15.4005 13.8142 15.264 13.8075L14.8365 13.8C14.688 13.8 14.4465 13.8555 14.2425 14.079C14.0385 14.3025 13.4625 14.841 13.4625 15.9383C13.4625 17.0355 14.2612 18.0953 14.3722 18.2437C14.484 18.3923 15.9435 20.6438 18.1792 21.609C18.711 21.8385 19.1265 21.9757 19.4497 22.0785C19.9837 22.248 20.4697 22.224 20.8537 22.167C21.282 22.1032 22.1722 21.6277 22.3582 21.1073C22.5442 20.586 22.5442 20.1398 22.488 20.0468Z" fill="#FFC94A"/>
</svg>
