<svg width="97" height="100" viewBox="0 0 97 100" fill="none" xmlns="http://www.w3.org/2000/svg">
<g clip-path="url(#clip0_815_405)">
<path d="M6.03333 4.314L61.4867 0.227337C68.2967 -0.355996 70.0467 0.0373373 74.3267 3.144L92.03 15.5873C94.9533 17.7273 95.9267 18.3107 95.9267 20.6407V88.884C95.9267 93.1607 94.3667 95.6907 88.92 96.0773L24.5233 99.9673C20.43 100.161 18.4867 99.5773 16.3433 96.854L3.31 79.9407C0.966667 76.8273 0 74.4973 0 71.774V11.114C0 7.61734 1.56 4.70067 6.03333 4.314Z" fill="white"/>
<path fill-rule="evenodd" clip-rule="evenodd" d="M61.49 0.227337L6.02667 4.314C1.56 4.70067 0 7.61734 0 11.114V71.774C0 74.4973 0.97 76.8273 3.30667 79.9407L16.3433 96.854C18.4867 99.5773 20.43 100.161 24.52 99.9673L88.9233 96.0773C94.37 95.6907 95.93 93.1607 95.93 88.884V20.6407C95.93 18.4307 95.0533 17.794 92.4733 15.9073L92.0333 15.5873L74.3333 3.144C70.05 0.0373373 68.3 -0.355996 61.4867 0.227337H61.49ZM25.9767 19.524C20.72 19.8773 19.5233 19.9573 16.54 17.534L8.95 11.5073C8.17333 10.7273 8.56333 9.754 10.5067 9.56067L63.8233 5.674C68.2967 5.284 70.6333 6.84067 72.3833 8.20067L81.53 14.8107C81.92 15.0073 82.89 16.1707 81.7233 16.1707L26.6567 19.4773L25.9767 19.524ZM19.8467 88.3007V30.3673C19.8467 27.8373 20.6267 26.6707 22.96 26.474L86.1967 22.7807C88.34 22.5873 89.3133 23.9473 89.3133 26.474V84.0207C89.3133 86.5507 88.9233 88.6907 85.42 88.884L24.9067 92.384C21.4067 92.5773 19.8467 91.414 19.8467 88.3007ZM79.5867 33.474C79.9733 35.224 79.5867 36.974 77.83 37.174L74.9167 37.7507V80.524C72.3833 81.884 70.05 82.6607 68.1033 82.6607C64.99 82.6607 64.21 81.6873 61.8767 78.774L42.8067 48.834V77.8007L48.84 79.164C48.84 79.164 48.84 82.664 43.9733 82.664L30.55 83.4407C30.16 82.6607 30.55 80.7173 31.91 80.3307L35.4133 79.3607V41.0607L30.55 40.6673C30.16 38.9173 31.13 36.3907 33.8567 36.1973L48.2567 35.224L68.1033 65.5573V38.724L63.0433 38.144C62.6567 36.0007 64.21 34.4473 66.1567 34.254L79.5867 33.474Z" fill="black"/>
</g>
<defs>
<clipPath id="clip0_815_405">
<rect width="96.6667" height="100" fill="white"/>
</clipPath>
</defs>
</svg>
