<svg width="100" height="100" viewBox="0 0 100 100" fill="none" xmlns="http://www.w3.org/2000/svg">
<path fill-rule="evenodd" clip-rule="evenodd" d="M36.5912 0.000244141C31.0744 0.00432161 26.6096 4.48138 26.6137 9.9982C26.6096 15.515 31.0785 19.9921 36.5953 19.9962H46.5769V10.0023C46.581 4.48546 42.1121 0.00839908 36.5912 0.000244141C36.5953 0.000244141 36.5953 0.000244141 36.5912 0.000244141ZM36.5912 26.6669H9.98166C4.46484 26.671 -0.00406633 31.148 1.11432e-05 36.6649C-0.0081438 42.1817 4.46076 46.6587 9.97758 46.6669H36.5912C42.108 46.6628 46.5769 42.1857 46.5729 36.6689C46.5769 31.148 42.108 26.671 36.5912 26.6669Z" fill="#36C5F0"/>
<path fill-rule="evenodd" clip-rule="evenodd" d="M99.8002 36.6649C99.8042 31.148 95.3353 26.671 89.8185 26.6669C84.3017 26.671 79.8328 31.148 79.8369 36.6649V46.6669H89.8185C95.3353 46.6628 99.8042 42.1857 99.8002 36.6649ZM73.1865 36.6649V9.9982C73.1906 4.48546 68.7258 0.00839908 63.2089 0.000244141C57.6921 0.00432161 53.2232 4.48138 53.2273 9.9982V36.6649C53.2192 42.1817 57.6881 46.6587 63.2049 46.6669C68.7217 46.6628 73.1906 42.1857 73.1865 36.6649Z" fill="#2EB67D"/>
<path fill-rule="evenodd" clip-rule="evenodd" d="M63.205 100C68.7219 99.9962 73.1908 95.5192 73.1867 90.0023C73.1908 84.4855 68.7219 80.0085 63.205 80.0044H53.2234V90.0023C53.2193 95.5151 57.6882 99.9921 63.205 100ZM63.205 73.3296H89.8187C95.3355 73.3255 99.8044 68.8484 99.8003 63.3316C99.8085 57.8148 95.3396 53.3377 89.8228 53.3296H63.2091C57.6923 53.3337 53.2234 57.8107 53.2275 63.3275C53.2234 68.8484 57.6882 73.3255 63.205 73.3296Z" fill="#ECB22E"/>
<path fill-rule="evenodd" clip-rule="evenodd" d="M0.000246929 63.3314C-0.00383054 68.8483 4.46508 73.3253 9.98189 73.3294C15.4987 73.3253 19.9676 68.8483 19.9635 63.3314V53.3335H9.98189C4.46508 53.3376 -0.00383054 57.8146 0.000246929 63.3314ZM26.6139 63.3314V89.9981C26.6057 95.5149 31.0746 99.992 36.5915 100C42.1083 99.9961 46.5772 95.519 46.5731 90.0022V63.3396C46.5813 57.8228 42.1124 53.3457 36.5955 53.3376C31.0746 53.3376 26.6098 57.8146 26.6139 63.3314Z" fill="#E01E5A"/>
</svg>
